<?xml version="1.0" encoding="UTF-8"?>
<svg id="Layer_1" data-name="Layer 1" xmlns="http://www.w3.org/2000/svg" viewBox="0 0 960 450">
  <defs>
    <style>
      .cls-1 {
        fill: #fff;
      }

      .cls-1, .cls-2 {
        stroke-width: 0px;
      }

      .cls-2 {
        fill: #33a02c;
      }
    </style>
  </defs>
  <g id="surface1">
    <path class="cls-2" d="m682.11,175.21c-52.12,0-104.72,23-104.72,74.35,0,24.09,11.48,43.8,33.03,57.02,18.18,11.08,43.08,17.23,70.1,17.23,17.19,0,33.91-2.17,51.72-8.12l-9.79-24.26c-11.59,2.75-21.68,3.64-30.38,3.64-42.3,0-66.63-16.55-66.63-45.5s25.52-46.18,66.53-46.18c8.12,0,15.83.78,25.72,2.96l14.71-23.07c-17.87-7.34-34.28-8.05-50.32-8.05m-215.29,0c-45.67,0-94.8,23.21-94.8,74.14s49.13,74.55,94.8,74.55,94.83-23.31,94.83-74.55-49.17-74.14-94.83-74.14m0,122.53c-27.59,0-46.75-19.95-46.75-48.39s18.79-48.49,46.75-48.49,46.75,19.54,46.75,48.49-19.27,48.39-46.75,48.39m350.97-122.53c-20.96,0-40.94,2.82-62.96,8.94v137.38h47.2v-118.55c5.23-.78,10.16-1.19,14.71-1.19,10.67,0,45.4,2.38,45.4,33.4,0,22.39-20.35,32.48-40.64,32.48-.92,0-3.09-.1-4.76-.17l-9.38,19.91c9.07.99,13.93,1.29,18.79,1.29,41.79,0,84.03-17.36,84.03-56.1,0-34.9-37.89-57.39-92.35-57.39"/>
    <path class="cls-2" d="m299.07,297.87c13.39-11.48,39.89-33.5,30.44-84.91-.1-.58-.95-.54-.99.03-1.36,20.32-12.13,33.16-17.23,49.17-.14.48-.82.37-.82-.14.17-15.53-12.71-27.52-14.68-36.8-.14-.54-.92-.54-1.02,0-4.93,30.89,9.55,51.72,3.5,72.14-.14.48.41.85.78.51"/>
    <path class="cls-2" d="m321.53,287.68c-16.04,19.27-18.42,17.77-35.75,34.73-.34.37-.92-.07-.65-.51,11.52-18.96,4.79-34.25,1.83-40.67-.24-.48-.92-.34-.95.17-.95,19.3-15.19,62.08-82.33,88.24-2.51.95-3.7,2.58-3.5,3.74,0,0,0,1.56,3.6,1.39,17.53-.82,90.35-16.41,118.45-86.65.2-.48-.41-.82-.71-.44"/>
    <path class="cls-2" d="m188.77,154.31c-6.8,12.37-15.05,35.98-16.51,43.46h-6.8c-.31,0-.54.27-.51.54.68,8.32,16.79,20.29,23.11,24.67.34.24.78,0,.78-.44l.88-67.96c0-.54-.68-.75-.95-.27"/>
    <path class="cls-2" d="m192.54,154.31c6.83,12.37,15.05,35.98,16.51,43.46h6.8c.31,0,.54.27.54.54-.68,8.32-16.82,20.29-23.14,24.67-.31.24-.75,0-.75-.44l-.88-67.96c0-.54.68-.75.95-.27"/>
    <path class="cls-2" d="m105.52,217.71c9.65,10.33,29.49,25.48,36.15,29.15l-2.11,6.49c-.07.31.07.61.37.68,8.09,1.9,24.43-9.75,30.55-14.44.31-.24.2-.71-.17-.85l-64.22-21.85c-.48-.14-.92.44-.54.82"/>
    <path class="cls-2" d="m106.71,214.11c13.83-2.65,38.8-3.23,46.35-2.28l2.11-6.49c.07-.31.37-.44.68-.34,7.68,3.19,14.03,22.29,16.24,29.66.1.37-.27.71-.65.61l-64.76-20.18c-.51-.14-.48-.88.03-.99"/>
    <path class="cls-2" d="m139.98,316.66c12.78-5.98,33.3-20.22,38.84-25.42l5.5,4.01c.24.17.58.1.75-.14,4.32-7.14-1.73-26.3-4.25-33.57-.14-.41-.65-.44-.88-.1l-40.54,54.47c-.34.41.1.99.58.75"/>
    <path class="cls-2" d="m136.92,314.45c1.77-14,8.94-37.99,12.16-44.89l-5.54-4.01c-.24-.17-.27-.51-.1-.75,5.44-6.32,25.48-6.49,33.16-6.32.41,0,.61.48.37.82l-39.14,55.49c-.27.44-.99.2-.92-.31"/>
    <path class="cls-2" d="m244.5,314.45c-1.77-14.03-8.94-37.99-12.13-44.92l5.5-4.01c.24-.17.27-.51.1-.75-5.44-6.32-25.48-6.49-33.2-6.32-.41,0-.61.48-.37.82l39.14,55.52c.31.41,1.02.17.92-.34"/>
    <path class="cls-2" d="m241.44,316.66c-12.74-5.98-33.27-20.25-38.84-25.45l-5.5,4.01c-.24.17-.58.14-.75-.14-4.32-7.14,1.73-26.3,4.25-33.57.14-.37.65-.44.88-.1l40.57,54.47c.31.44-.14,1.02-.61.78"/>
    <path class="cls-2" d="m274.67,214.11c-13.83-2.68-38.8-3.23-46.35-2.31l-2.11-6.49c-.07-.27-.41-.44-.68-.34-7.68,3.23-14.03,22.29-16.24,29.66-.1.41.27.75.65.61l64.76-20.15c.51-.17.48-.88-.03-.99"/>
    <path class="cls-2" d="m275.83,217.71c-9.62,10.33-29.49,25.48-36.12,29.15l2.11,6.49c.07.31-.07.61-.37.68-8.09,1.9-24.43-9.75-30.55-14.44-.31-.24-.2-.71.17-.85l64.22-21.85c.48-.14.88.44.54.82"/>
    <path class="cls-2" d="m278.44,144.49c-4.18-3.81-10.3-5.67-16.55-6.29-.54-.03-1.09-.2-1.56-.44-10.98-5.91-22.7-10.94-34.86-13.69-.03,0-.17-.03-.17-.03-.31-.07-.58.1-.65.41-.03.27.14.54.41.65,0,0,.14,0,.2.03,12.84,3.16,25.65,9.04,33.1,15.22.51.41.88.95,1.16,1.56,2.11,5.03,4.45,9.68,8.63,13.52,4.04,3.7,9.75,4.32,12.57,1.33s2.28-8.09-2.24-12.27"/>
    <path class="cls-2" d="m303.89,190.06l-12.3-15.7c-9.28-11.79-13.52-8.39-20.63-8.02-1.26.07-2.48-.31-3.47-1.09-12.71-10.26-26.98-19.91-45.87-23.92-.07,0-.2-.03-.2-.03-.24-.07-.51.1-.54.34-.07.24.1.48.31.51,0,0,1.09.31,1.63.44,15.29,4.08,28.37,11.45,39.99,23.28,19.44,23.45,32.08,20.42,40.43,24.91.48.27.99-.31.65-.75"/>
    <path class="cls-2" d="m308.58,187.95c-1.77-9.82.82-26.88-11.52-40.67-.44-.58-1.16-1.29-1.87-2-16.99-18.31-39.65-31.74-66.26-37.41-2.17-.44-4.35-.85-6.59-1.22-.03,0-.14-.03-.14-.03-.24,0-.48.14-.51.37-.03.24.14.48.37.51,0,0,.24.03.34.07,2.11.37,4.21.82,6.29,1.26,24.53,5.57,45.29,17.23,61.6,36.63.92,1.12,1.19,2.62.71,3.98-1.9,5.16-3.36,9.24,1.5,16.38,1.39,2.11,11.28,16.75,15.15,22.49.31.44.99.17.88-.34"/>
    <path class="cls-2" d="m312.59,213.03c0,.48-.65.61-.82.17-1.26-3.19-3.81-8.43-8.26-12.67-5.61-5.4-11.76-5.81-16.41-10.16-.37-.37-.99-.03-.88.48,5.81,27.56,23.04,28.71,25.35,44.27.07.51.78.58.95.07,4.69-14.34,24.94-36.05-.48-68.98-.34-.44-1.05-.07-.88.48,5.74,17.36,1.05,32.59,1.43,46.35"/>
    <path class="cls-2" d="m82.32,297.87c-13.39-11.48-39.89-33.5-30.48-84.91.1-.58.95-.54,1.02.03,1.33,20.32,12.1,33.16,17.19,49.17.14.48.82.37.82-.14-.17-15.53,12.71-27.52,14.68-36.8.17-.54.95-.54,1.02,0,4.96,30.89-9.55,51.72-3.5,72.14.14.48-.37.85-.75.51"/>
    <path class="cls-2" d="m59.86,287.68c16.04,19.27,18.38,17.77,35.71,34.73.37.37.95-.07.68-.51-11.55-18.96-4.82-34.25-1.83-40.67.2-.48.88-.34.92.17.99,19.3,15.22,62.08,82.33,88.24,2.51.95,3.7,2.58,3.5,3.74,0,0,0,1.56-3.6,1.39-17.5-.82-90.35-16.41-118.45-86.65-.17-.48.44-.82.75-.44"/>
    <path class="cls-2" d="m102.91,144.49c4.18-3.81,10.33-5.67,16.55-6.29.58-.03,1.09-.2,1.56-.44,10.98-5.91,22.73-10.94,34.86-13.69.03,0,.17-.03.17-.03.27-.07.58.1.65.41.03.27-.14.54-.41.65,0,0-.14,0-.2.03-12.84,3.16-25.65,9.04-33.1,15.22-.51.41-.88.95-1.16,1.56-2.11,5.03-4.45,9.68-8.63,13.52-4.04,3.7-9.75,4.32-12.57,1.33s-2.28-8.09,2.24-12.27"/>
    <path class="cls-2" d="m77.49,190.06l12.3-15.7c9.28-11.79,13.52-8.39,20.59-8.02,1.26.07,2.48-.31,3.47-1.09,12.71-10.26,26.98-19.91,45.87-23.92.07,0,.24-.03.24-.03.24-.07.48.1.51.34.07.24-.07.48-.31.51,0,0-1.09.31-1.63.44-15.29,4.08-28.37,11.45-39.99,23.28-19.44,23.45-32.04,20.42-40.43,24.91-.44.27-.95-.31-.61-.75"/>
    <path class="cls-2" d="m72.77,187.95c1.77-9.82-.82-26.88,11.52-40.67.48-.58,1.16-1.29,1.87-2,17.02-18.31,39.65-31.74,66.29-37.41,2.17-.44,4.35-.85,6.56-1.22.07,0,.17-.03.17-.03.24,0,.44.14.48.37.03.24-.14.48-.37.51,0,0-.2.03-.31.07-2.14.37-4.25.82-6.32,1.26-24.53,5.57-45.29,17.23-61.57,36.63-.92,1.12-1.19,2.62-.71,3.98,1.9,5.16,3.36,9.24-1.5,16.38-1.43,2.11-11.28,16.75-15.15,22.49-.31.44-1.02.17-.92-.34"/>
    <path class="cls-2" d="m70.19,166.68c.2-.54-.51-.92-.88-.48-25.42,32.93-5.16,54.67-.48,69.01.17.48.88.41.95-.1,2.34-15.56,19.57-16.72,25.35-44.27.1-.51-.51-.85-.88-.48-4.66,4.35-10.77,4.72-16.41,10.16-4.45,4.25-6.97,9.48-8.26,12.67-.17.44-.82.31-.82-.17.37-13.76-4.32-28.98,1.43-46.35"/>
  </g>
  <rect class="cls-2" y="480" width="960" height="480"/>
  <g id="surface1-2" data-name="surface1">
    <path class="cls-1" d="m688.4,658.15c-52.12,0-104.72,23-104.72,74.35,0,24.09,11.48,43.8,33.03,57.02,18.18,11.08,43.08,17.23,70.1,17.23,17.19,0,33.91-2.17,51.72-8.12l-9.79-24.26c-11.59,2.75-21.68,3.64-30.38,3.64-42.3,0-66.63-16.55-66.63-45.5s25.52-46.18,66.53-46.18c8.12,0,15.83.78,25.72,2.96l14.71-23.07c-17.87-7.34-34.28-8.05-50.32-8.05m-215.29,0c-45.67,0-94.8,23.21-94.8,74.14s49.13,74.55,94.8,74.55,94.83-23.31,94.83-74.55-49.17-74.14-94.83-74.14m0,122.53c-27.59,0-46.75-19.95-46.75-48.39s18.79-48.49,46.75-48.49,46.75,19.54,46.75,48.49-19.27,48.39-46.75,48.39m350.97-122.53c-20.96,0-40.94,2.82-62.96,8.94v137.38h47.2v-118.55c5.23-.78,10.16-1.19,14.71-1.19,10.67,0,45.4,2.38,45.4,33.4,0,22.39-20.35,32.48-40.64,32.48-.92,0-3.09-.1-4.76-.17l-9.38,19.91c9.07.99,13.93,1.29,18.79,1.29,41.79,0,84.03-17.36,84.03-56.1,0-34.9-37.89-57.39-92.35-57.39"/>
    <path class="cls-1" d="m305.36,780.82c13.39-11.48,39.89-33.5,30.44-84.91-.1-.58-.95-.54-.99.03-1.36,20.32-12.13,33.16-17.23,49.17-.14.48-.82.37-.82-.14.17-15.53-12.71-27.52-14.68-36.8-.14-.54-.92-.54-1.02,0-4.93,30.89,9.55,51.72,3.5,72.14-.14.48.41.85.78.51"/>
    <path class="cls-1" d="m327.82,770.62c-16.04,19.27-18.42,17.77-35.75,34.73-.34.37-.92-.07-.65-.51,11.52-18.96,4.79-34.25,1.83-40.67-.24-.48-.92-.34-.95.17-.95,19.3-15.19,62.08-82.33,88.24-2.51.95-3.7,2.58-3.5,3.74,0,0,0,1.56,3.6,1.39,17.53-.82,90.35-16.41,118.45-86.65.2-.48-.41-.82-.71-.44"/>
    <path class="cls-1" d="m195.06,637.26c-6.8,12.37-15.05,35.98-16.51,43.46h-6.8c-.31,0-.54.27-.51.54.68,8.32,16.79,20.29,23.11,24.67.34.24.78,0,.78-.44l.88-67.96c0-.54-.68-.75-.95-.27"/>
    <path class="cls-1" d="m198.83,637.26c6.83,12.37,15.05,35.98,16.51,43.46h6.8c.31,0,.54.27.54.54-.68,8.32-16.82,20.29-23.14,24.67-.31.24-.75,0-.75-.44l-.88-67.96c0-.54.68-.75.95-.27"/>
    <path class="cls-1" d="m111.81,700.66c9.65,10.33,29.49,25.48,36.15,29.15l-2.11,6.49c-.07.31.07.61.37.68,8.09,1.9,24.43-9.75,30.55-14.44.31-.24.2-.71-.17-.85l-64.22-21.85c-.48-.14-.92.44-.54.82"/>
    <path class="cls-1" d="m113,697.06c13.83-2.65,38.8-3.23,46.35-2.28l2.11-6.49c.07-.31.37-.44.68-.34,7.68,3.19,14.03,22.29,16.24,29.66.1.37-.27.71-.65.61l-64.76-20.18c-.51-.14-.48-.88.03-.99"/>
    <path class="cls-1" d="m146.27,799.61c12.78-5.98,33.3-20.22,38.84-25.42l5.5,4.01c.24.17.58.1.75-.14,4.32-7.14-1.73-26.3-4.25-33.57-.14-.41-.65-.44-.88-.1l-40.54,54.47c-.34.41.1.99.58.75"/>
    <path class="cls-1" d="m143.21,797.4c1.77-14,8.94-37.99,12.16-44.89l-5.54-4.01c-.24-.17-.27-.51-.1-.75,5.44-6.32,25.48-6.49,33.16-6.32.41,0,.61.48.37.82l-39.14,55.49c-.27.44-.99.2-.92-.31"/>
    <path class="cls-1" d="m250.79,797.4c-1.77-14.03-8.94-37.99-12.13-44.92l5.5-4.01c.24-.17.27-.51.1-.75-5.44-6.32-25.48-6.49-33.2-6.32-.41,0-.61.48-.37.82l39.14,55.52c.31.41,1.02.17.92-.34"/>
    <path class="cls-1" d="m247.73,799.61c-12.74-5.98-33.27-20.25-38.84-25.45l-5.5,4.01c-.24.17-.58.14-.75-.14-4.32-7.14,1.73-26.3,4.25-33.57.14-.37.65-.44.88-.1l40.57,54.47c.31.44-.14,1.02-.61.78"/>
    <path class="cls-1" d="m280.96,697.06c-13.83-2.68-38.8-3.23-46.35-2.31l-2.11-6.49c-.07-.27-.41-.44-.68-.34-7.68,3.23-14.03,22.29-16.24,29.66-.1.41.27.75.65.61l64.76-20.15c.51-.17.48-.88-.03-.99"/>
    <path class="cls-1" d="m282.11,700.66c-9.62,10.33-29.49,25.48-36.12,29.15l2.11,6.49c.07.31-.07.61-.37.68-8.09,1.9-24.43-9.75-30.55-14.44-.31-.24-.2-.71.17-.85l64.22-21.85c.48-.14.88.44.54.82"/>
    <path class="cls-1" d="m284.73,627.44c-4.18-3.81-10.3-5.67-16.55-6.29-.54-.03-1.09-.2-1.56-.44-10.98-5.91-22.7-10.94-34.86-13.69-.03,0-.17-.03-.17-.03-.31-.07-.58.1-.65.41-.03.27.14.54.41.65,0,0,.14,0,.2.03,12.84,3.16,25.65,9.04,33.1,15.22.51.41.88.95,1.16,1.56,2.11,5.03,4.45,9.68,8.63,13.52,4.04,3.7,9.75,4.32,12.57,1.33s2.28-8.09-2.24-12.27"/>
    <path class="cls-1" d="m310.18,673l-12.3-15.7c-9.28-11.79-13.52-8.39-20.63-8.02-1.26.07-2.48-.31-3.47-1.09-12.71-10.26-26.98-19.91-45.87-23.92-.07,0-.2-.03-.2-.03-.24-.07-.51.1-.54.34-.07.24.1.48.31.51,0,0,1.09.31,1.63.44,15.29,4.08,28.37,11.45,39.99,23.28,19.44,23.45,32.08,20.42,40.43,24.91.48.27.99-.31.65-.75"/>
    <path class="cls-1" d="m314.87,670.89c-1.77-9.82.82-26.88-11.52-40.67-.44-.58-1.16-1.29-1.87-2-16.99-18.31-39.65-31.74-66.26-37.41-2.17-.44-4.35-.85-6.59-1.22-.03,0-.14-.03-.14-.03-.24,0-.48.14-.51.37-.03.24.14.48.37.51,0,0,.24.03.34.07,2.11.37,4.21.82,6.29,1.26,24.53,5.57,45.29,17.23,61.6,36.63.92,1.12,1.19,2.62.71,3.98-1.9,5.16-3.36,9.24,1.5,16.38,1.39,2.11,11.28,16.75,15.15,22.49.31.44.99.17.88-.34"/>
    <path class="cls-1" d="m318.88,695.97c0,.48-.65.61-.82.17-1.26-3.19-3.81-8.43-8.26-12.67-5.61-5.4-11.76-5.81-16.41-10.16-.37-.37-.99-.03-.88.48,5.81,27.56,23.04,28.71,25.35,44.27.07.51.78.58.95.07,4.69-14.34,24.94-36.05-.48-68.98-.34-.44-1.05-.07-.88.48,5.74,17.36,1.05,32.59,1.43,46.35"/>
    <path class="cls-1" d="m88.61,780.82c-13.39-11.48-39.89-33.5-30.48-84.91.1-.58.95-.54,1.02.03,1.33,20.32,12.1,33.16,17.19,49.17.14.48.82.37.82-.14-.17-15.53,12.71-27.52,14.68-36.8.17-.54.95-.54,1.02,0,4.96,30.89-9.55,51.72-3.5,72.14.14.48-.37.85-.75.51"/>
    <path class="cls-1" d="m66.15,770.62c16.04,19.27,18.38,17.77,35.71,34.73.37.37.95-.07.68-.51-11.55-18.96-4.82-34.25-1.83-40.67.2-.48.88-.34.92.17.99,19.3,15.22,62.08,82.33,88.24,2.51.95,3.7,2.58,3.5,3.74,0,0,0,1.56-3.6,1.39-17.5-.82-90.35-16.41-118.45-86.65-.17-.48.44-.82.75-.44"/>
    <path class="cls-1" d="m109.2,627.44c4.18-3.81,10.33-5.67,16.55-6.29.58-.03,1.09-.2,1.56-.44,10.98-5.91,22.73-10.94,34.86-13.69.03,0,.17-.03.17-.03.27-.07.58.1.65.41.03.27-.14.54-.41.65,0,0-.14,0-.2.03-12.84,3.16-25.65,9.04-33.1,15.22-.51.41-.88.95-1.16,1.56-2.11,5.03-4.45,9.68-8.63,13.52-4.04,3.7-9.75,4.32-12.57,1.33-2.82-2.99-2.28-8.09,2.24-12.27"/>
    <path class="cls-1" d="m83.78,673l12.3-15.7c9.28-11.79,13.52-8.39,20.59-8.02,1.26.07,2.48-.31,3.47-1.09,12.71-10.26,26.98-19.91,45.87-23.92.07,0,.24-.03.24-.03.24-.07.48.1.51.34.07.24-.07.48-.31.51,0,0-1.09.31-1.63.44-15.29,4.08-28.37,11.45-39.99,23.28-19.44,23.45-32.04,20.42-40.43,24.91-.44.27-.95-.31-.61-.75"/>
    <path class="cls-1" d="m79.06,670.89c1.77-9.82-.82-26.88,11.52-40.67.48-.58,1.16-1.29,1.87-2,17.02-18.31,39.65-31.74,66.29-37.41,2.17-.44,4.35-.85,6.56-1.22.07,0,.17-.03.17-.03.24,0,.44.14.48.37.03.24-.14.48-.37.51,0,0-.2.03-.31.07-2.14.37-4.25.82-6.32,1.26-24.53,5.57-45.29,17.23-61.57,36.63-.92,1.12-1.19,2.62-.71,3.98,1.9,5.16,3.36,9.24-1.5,16.38-1.43,2.11-11.28,16.75-15.15,22.49-.31.44-1.02.17-.92-.34"/>
    <path class="cls-1" d="m76.47,649.62c.2-.54-.51-.92-.88-.48-25.42,32.93-5.16,54.67-.48,69.01.17.48.88.41.95-.1,2.34-15.56,19.57-16.72,25.35-44.27.1-.51-.51-.85-.88-.48-4.66,4.35-10.77,4.72-16.41,10.16-4.45,4.25-6.97,9.48-8.26,12.67-.17.44-.82.31-.82-.17.37-13.76-4.32-28.98,1.43-46.35"/>
  </g>
</svg>